<svg xmlns="http://www.w3.org/2000/svg" viewBox="0 0 512 512" width="512" height="512">
	<style>
		tspan { white-space:pre }
		.shp0 { fill: #000000 } 
	</style>
	<g id="Layer">
		<g id="Layer">
			<path id="Layer" class="shp0" d="M505.95,315.06c-14.98,55.89 -42.97,101.86 -80.95,132.92c-36.34,29.72 -80.96,45.43 -129.04,45.43c-29.89,0 -60.31,-6.02 -90.4,-17.89c-3.31,-1.31 -6.61,-2.69 -9.9,-4.14c-20.86,14.42 -45.23,22.03 -70.82,22.03c-68.84,0 -124.84,-56 -124.84,-124.84c0,-65.66 50.96,-119.65 115.41,-124.49c0.55,-4.67 1.49,-9.07 2.75,-13.21c-14.5,-0.83 -28.02,-6.86 -38.37,-17.21c-14.88,-14.88 -20.74,-36.76 -15.31,-57.11c0.92,-3.46 3.62,-6.16 7.08,-7.08c4.98,-1.33 10.13,-2 15.3,-2c15.79,0 30.64,6.15 41.81,17.31c8.33,8.33 13.84,18.86 16.11,30.09c4.89,-3.16 10,-5.44 15.03,-6.79c5.33,-1.43 10.82,1.74 12.25,7.07c1.43,5.33 -1.74,10.82 -7.07,12.25c-9.25,2.48 -25.82,13.23 -29.42,36.78c12.71,1.09 24.88,4.08 36.22,8.7c9.11,-15.54 20.48,-25.81 30.69,-35.02c12.5,-11.28 21.54,-19.42 22.8,-33.39c4.18,-46.41 17.35,-78.77 39.14,-96.18c11.93,-9.53 26.42,-14.4 42.38,-14.36c3.98,-30.61 24.79,-49.78 44.27,-55c5.33,-1.43 10.82,1.74 12.25,7.07c1.43,5.33 -1.74,10.82 -7.07,12.25c-9.44,2.53 -26.49,13.65 -29.63,38.18c15.8,3.98 28.79,12.48 37.92,24.97c16.38,22.41 20.54,57.17 12.35,103.32c-2.53,14.24 4.87,25.72 14.23,40.27c3.83,5.95 7.94,12.34 11.66,19.44c7.53,-13.64 13.76,-28.09 18.45,-43.19c0.97,-3.13 3.41,-5.58 6.53,-6.57c4.98,-1.58 6.06,-3.31 7.29,-19.66c0.32,-4.34 0.69,-9.26 1.41,-14.63c0.28,-2.09 1.21,-4.04 2.66,-5.57c8.5,-8.96 21.91,-12.97 31.43,-12.97c1.6,0 3.16,0.11 4.63,0.31c4.26,0.6 7.67,3.86 8.44,8.1l0.29,1.62c2.25,12.41 5.04,27.86 21.6,41.87c1.77,1.5 2.96,3.56 3.38,5.84c6.26,34.29 1.95,77.25 -2.93,95.48zM189.69,261.92c35.95,21.94 60,61.54 60,106.65c0,4.5 -0.24,8.99 -0.72,13.45c56.27,-13 107.41,-48.49 141.12,-97.16c-4.05,-10.79 -10.01,-20.06 -15.79,-29.05c-10.32,-16.04 -21,-32.62 -17.1,-54.59c7.2,-40.57 4.24,-70.18 -8.81,-88.02c-7.65,-10.47 -18.96,-16.76 -33.6,-18.72c-14.83,-1.98 -27.58,1.19 -37.89,9.43c-17.37,13.88 -28.04,41.59 -31.71,82.35c-1.96,21.78 -15.87,34.32 -29.32,46.45c-9.22,8.31 -18.69,16.88 -26.18,29.19zM121.59,210.97h0c1.39,0 2.78,-0.07 4.16,-0.22c1.23,-11.65 -2.83,-23.43 -11.23,-31.83c-7.39,-7.39 -17.21,-11.46 -27.66,-11.46c-1.39,0 -2.78,0.08 -4.17,0.22c-1.23,11.65 2.83,23.43 11.23,31.83c7.39,7.39 17.21,11.46 27.66,11.46zM174.36,460.99c-19.77,-10.62 -38.96,-23.7 -57.33,-39.13c-3.18,-2.67 -4.38,-7.03 -3.01,-10.95c5.31,-15.22 14.27,-23.15 23.16,-29.46c2.43,-1.72 5.5,-2.28 8.38,-1.5c14.12,3.78 28.45,6.15 42.77,7.07c1.74,-5.98 2.63,-12.16 2.63,-18.45c0,-8.65 -1.66,-17.09 -4.94,-25.08c-2.1,-5.11 0.35,-10.95 5.46,-13.05c5.11,-2.1 10.95,0.35 13.05,5.46c4.27,10.42 6.44,21.41 6.44,32.68c0,6.36 -0.72,12.63 -2.09,18.76c6.51,-0.22 12.98,-0.75 19.42,-1.58c0.93,-5.66 1.4,-11.41 1.4,-17.18c0,-57.81 -47.03,-104.84 -104.84,-104.84c-57.81,0 -104.84,47.03 -104.84,104.84c0,57.81 47.03,104.84 104.84,104.84c17.54,0 34.39,-4.26 49.52,-12.41zM489.78,226.53c-16.37,-15.07 -21.56,-31.39 -24.22,-44.11c-3.53,0.78 -7.06,2.31 -9.72,4.24c-0.37,3.43 -0.61,6.68 -0.85,9.84c-1.04,13.86 -2.11,28.14 -16.12,35.19c-6.96,20.95 -16.83,41.1 -29.16,59.8c-0.16,0.27 -0.34,0.53 -0.52,0.78c-15.61,23.5 -35.1,44.7 -57.59,62.29c-44.23,34.6 -95.98,52.89 -149.65,52.89c-18.96,0 -38.06,-2.35 -56.84,-6.98c-3.52,2.79 -6.79,6.06 -9.44,10.81c49.95,40.11 106.61,62.12 160.29,62.12c91.96,0 163.23,-61.13 190.67,-163.52c4.42,-16.5 7.78,-53.89 3.15,-83.35z" />
		</g>
	</g>
	<g id="Layer">
		<g id="Layer">
			<path id="Layer" class="shp0" d="M322.5,115.07c-5.09,-2.13 -10.95,0.26 -13.09,5.36c-2.14,5.09 0.26,10.95 5.36,13.09c7.27,3.05 11.29,25 4.89,61.05c-0.96,5.44 2.66,10.63 8.1,11.59c0.59,0.1 1.18,0.16 1.76,0.16c4.76,0 8.98,-3.41 9.83,-8.25c5.72,-32.24 7.44,-72.81 -16.85,-83z" />
		</g>
	</g>
	<g id="Layer">
		<g id="Layer">
			<path id="Layer" class="shp0" d="M388.6,401.29c-3.31,-4.42 -9.59,-5.31 -14.01,-1.99c0,0 -0.05,0.03 -0.05,0.04c-4.45,3.26 -5.4,9.5 -2.15,13.96c1.95,2.67 5,4.09 8.08,4.09c2.05,0 4.13,-0.63 5.91,-1.93l0.23,-0.17c4.42,-3.31 5.3,-9.57 1.99,-13.99z" />
		</g>
	</g>
	<g id="Layer">
		<g id="Layer">
			<path id="Layer" class="shp0" d="M365.65,417.46c-2.52,-4.92 -8.54,-6.86 -13.46,-4.35c-34.23,17.51 -63.1,16.81 -63.53,16.8c-5.5,-0.19 -10.14,4.09 -10.36,9.6c-0.22,5.52 4.08,10.17 9.6,10.38c0.15,0.01 0.69,0.02 1.58,0.02c7.15,0 36.93,-1.16 71.81,-19c4.92,-2.51 6.86,-8.54 4.35,-13.46z" />
		</g>
	</g>
	<g id="Layer">
		<g id="Layer">
			<path id="Layer" class="shp0" d="M186.04,307.98l-0.33,-0.33c-3.91,-3.89 -10.25,-3.88 -14.14,0.04c-3.9,3.92 -3.88,10.25 0.04,14.14l0.22,0.21c1.96,1.98 4.53,2.97 7.11,2.97c2.54,0 5.08,-0.96 7.03,-2.89c3.93,-3.88 3.96,-10.22 0.08,-14.14z" />
		</g>
	</g>
	<g id="Layer">
	</g>
	<g id="Layer">
	</g>
	<g id="Layer">
	</g>
	<g id="Layer">
	</g>
	<g id="Layer">
	</g>
	<g id="Layer">
	</g>
	<g id="Layer">
	</g>
	<g id="Layer">
	</g>
	<g id="Layer">
	</g>
	<g id="Layer">
	</g>
	<g id="Layer">
	</g>
	<g id="Layer">
	</g>
	<g id="Layer">
	</g>
	<g id="Layer">
	</g>
	<g id="Layer">
	</g>
</svg>