<svg xmlns="http://www.w3.org/2000/svg" viewBox="0 0 512 512" width="512" height="512">
	<style>
		tspan { white-space:pre }
		.shp0 { fill: #000000 } 
	</style>
	<g id="Layer">
		<g id="Layer">
			<path id="Layer" class="shp0" d="M470.57,369.84c-1.95,-5.29 -7.81,-7.99 -13.1,-6.04l-106.07,39.14c-5.29,1.95 -7.99,7.81 -6.04,13.1c1.52,4.12 5.42,6.67 9.57,6.67c1.17,0 2.37,-0.2 3.53,-0.63l106.07,-39.14c5.29,-1.95 7.99,-7.81 6.04,-13.1z" />
		</g>
	</g>
	<g id="Layer">
		<g id="Layer">
			<path id="Layer" class="shp0" d="M335.34,419.74c-1.95,-5.29 -7.81,-7.99 -13.1,-6.04l-4.49,1.66c-5.28,1.95 -7.99,7.81 -6.04,13.1c1.52,4.12 5.42,6.67 9.57,6.67c1.17,0 2.37,-0.2 3.53,-0.63l4.49,-1.66c5.28,-1.95 7.99,-7.81 6.04,-13.1z" />
		</g>
	</g>
	<g id="Layer">
		<g id="Layer">
			<path id="Layer" class="shp0" d="M470.57,328.28c-1.95,-5.29 -7.81,-7.99 -13.1,-6.04l-83.82,30.93c-5.29,1.95 -7.99,7.81 -6.04,13.1c1.52,4.12 5.42,6.67 9.57,6.67c1.17,0 2.37,-0.2 3.53,-0.63l83.82,-30.93c5.29,-1.95 7.99,-7.82 6.04,-13.1z" />
		</g>
	</g>
	<g id="Layer">
		<g id="Layer">
			<path id="Layer" class="shp0" d="M470.57,287.15c-1.95,-5.29 -7.81,-7.99 -13.1,-6.04l-83.82,30.93c-5.29,1.95 -7.99,7.81 -6.04,13.1c1.52,4.12 5.42,6.67 9.57,6.67c1.17,0 2.37,-0.2 3.53,-0.63l83.82,-30.93c5.29,-1.95 7.99,-7.81 6.04,-13.1z" />
		</g>
	</g>
	<g id="Layer">
		<g id="Layer">
			<path id="Layer" class="shp0" d="M512,110.1v291.81c0,4.27 -2.66,8.09 -6.67,9.57l-245.8,90.7l0,-0.01c-1.13,0.42 -2.33,0.64 -3.53,0.64c-1.19,0 -2.38,-0.21 -3.53,-0.63l-245.8,-90.7c-4.01,-1.48 -6.67,-5.3 -6.67,-9.57v-291.81c0,-3.33 1.63,-6.46 4.37,-8.37c0.72,-0.5 1.49,-0.89 2.3,-1.19l0,-0.01l245.8,-90.7c2.28,-0.84 4.78,-0.84 7.06,0l245.8,90.7c4.01,1.48 6.67,5.3 6.67,9.57zM245.8,477.97l0,0v0zM245.8,477.96v-270.06l-48.96,-18.06v116.05c0,3.34 -1.63,6.46 -4.37,8.37c-1.73,1.21 -3.78,1.83 -5.83,1.83c-1.19,0 -2.38,-0.21 -3.53,-0.63l-110.15,-40.64c-4.01,-1.48 -6.67,-5.3 -6.67,-9.57v-123.58l-45.9,-16.94v270.06zM86.69,149.19v108.94l89.75,33.12v-108.94zM186.65,164.25l80.69,-29.77l-80.69,-29.77l-80.69,29.77zM472.34,110.1l-216.34,-79.82l-216.34,79.82l36.72,13.55l106.73,-39.38c2.28,-0.84 4.78,-0.84 7.06,0l110.15,40.64c4.01,1.48 6.67,5.3 6.67,9.57c0,4.27 -2.66,8.09 -6.67,9.57l-84.33,31.12l40,14.76zM491.6,124.73l-225.4,83.17v270.06l225.4,-83.17z" />
		</g>
	</g>
	<g id="Layer">
	</g>
	<g id="Layer">
	</g>
	<g id="Layer">
	</g>
	<g id="Layer">
	</g>
	<g id="Layer">
	</g>
	<g id="Layer">
	</g>
	<g id="Layer">
	</g>
	<g id="Layer">
	</g>
	<g id="Layer">
	</g>
	<g id="Layer">
	</g>
	<g id="Layer">
	</g>
	<g id="Layer">
	</g>
	<g id="Layer">
	</g>
	<g id="Layer">
	</g>
	<g id="Layer">
	</g>
</svg>