<svg xmlns="http://www.w3.org/2000/svg" viewBox="0 0 512 512" width="512" height="512">
	<style>
		tspan { white-space:pre }
		.shp0 { fill: #000000 } 
	</style>
	<path id="Layer" class="shp0" d="M512,233.5v258.5c0,11.03 -8.97,20 -20,20h-160.59c-4.96,0 -9.5,-1.83 -13,-4.83c-4.59,3.05 -10.09,4.83 -16,4.83h-121.41c-4.35,0 -8.48,-0.97 -12.19,-2.7c-1.79,1.67 -4.18,2.7 -6.81,2.7h-152c-5.52,0 -10,-4.48 -10,-10v-294.18c0,-35.45 19.76,-67.68 50.88,-83.87v-113.96c0,-5.52 4.48,-10 10,-10h50.25c5.52,0 10,4.48 10,10v113.96c31.11,16.19 50.88,48.42 50.88,83.87v37.48c1.72,-4.11 3.53,-8.18 5.46,-12.2l0.03,-0.06c15.39,-32.02 23.51,-67.65 23.51,-103.11v-109.27c0,-11.4 9.27,-20.67 20.67,-20.67h39.99c11.39,0 20.66,9.27 20.67,20.67v109.18c0,35.51 8.14,71.2 23.55,103.19c1.96,4.06 3.79,8.18 5.53,12.35v-11.89c0,-43.45 21.07,-84.52 56.36,-109.85c5.21,-3.74 8.32,-9.8 8.32,-16.21v-97.44c0,-5.52 4.48,-10 10,-10h51.23c5.52,0 10,4.48 10,10v97.44c0,6.41 3.11,12.47 8.32,16.21c35.29,25.34 56.36,66.41 56.36,109.85zM427.32,100v-41.79h-31.23v41.79zM396.09,20v18.21h31.23v-18.21zM217.9,169.44h47.54c-2.05,-13.11 -3.12,-26.36 -3.12,-39.59v-61.77h-41.32v61.86c0,13.2 -1.06,26.42 -3.1,39.5zM221,48.08h41.32v-27.41c0,-0.37 -0.3,-0.67 -0.66,-0.67h-39.99c-0.37,0 -0.67,0.3 -0.67,0.67zM70.88,20v64.57h30.25v-64.57zM20,207.82v203.99h132v-145.82h-72c-5.52,0 -10,-4.48 -10,-10c0,-5.52 4.48,-10 10,-10h72v-38.18c0,-29.71 -17.61,-56.55 -44.86,-68.39c-3.65,-1.59 -6.02,-5.19 -6.02,-9.17v-25.69h-30.25v25.69c0,3.98 -2.36,7.59 -6.02,9.17c-27.25,11.84 -44.86,38.68 -44.86,68.39zM152,431.82h-132v60.18h132zM311.41,483v-138.09c0,-35.51 -8.14,-71.2 -23.55,-103.19c-8.02,-16.66 -14.21,-34.24 -18.49,-52.28h-55.39c-4.27,18.02 -10.44,35.57 -18.43,52.21l-0.03,0.06c-15.39,32.02 -23.51,67.65 -23.51,103.11v138.18c0,4.96 4.04,9 9,9h121.41c4.96,0 9,-4.04 9,-9zM492,233.5c0,-37.02 -17.95,-72.02 -48.03,-93.61c-6.92,-4.97 -11.97,-11.99 -14.6,-19.89h-35.34c-2.62,7.91 -7.68,14.93 -14.6,19.89c-30.07,21.59 -48.03,56.59 -48.03,93.61v258.5h160.59z" />
	<path id="Layer" class="shp0" d="M43.43,266c2.63,0 5.21,-1.07 7.07,-2.93c1.86,-1.86 2.93,-4.44 2.93,-7.07c0,-2.63 -1.07,-5.21 -2.93,-7.07c-1.86,-1.86 -4.44,-2.93 -7.07,-2.93c-2.63,0 -5.21,1.07 -7.07,2.93c-1.86,1.86 -2.93,4.44 -2.93,7.07c0,2.63 1.07,5.21 2.93,7.07c1.86,1.86 4.44,2.93 7.07,2.93z" />
	<path id="Layer" class="shp0" d="M48.36,338.91c0,-20.75 16.88,-37.64 37.64,-37.64c20.75,0 37.64,16.88 37.64,37.64c0,20.75 -16.88,37.64 -37.64,37.64c-20.75,0 -37.64,-16.89 -37.64,-37.64zM68.36,338.91c0,9.72 7.91,17.64 17.64,17.64c9.73,0 17.64,-7.91 17.64,-17.64c0,-9.73 -7.91,-17.64 -17.64,-17.64c-9.73,0 -17.64,7.91 -17.64,17.64z" />
	<path id="Layer" class="shp0" d="M460.02,326c-2.63,0 -5.21,1.07 -7.07,2.93c-1.86,1.86 -2.93,4.43 -2.93,7.07c0,2.63 1.07,5.21 2.93,7.07c1.86,1.86 4.44,2.93 7.07,2.93c2.63,0 5.21,-1.07 7.07,-2.93c1.86,-1.86 2.93,-4.44 2.93,-7.07c0,-2.63 -1.07,-5.21 -2.93,-7.07c-1.86,-1.86 -4.44,-2.93 -7.07,-2.93z" />
	<path id="Layer" class="shp0" d="M353.39,266v140c0,5.52 4.48,10 10,10h96.63c5.52,0 10,-4.48 10,-10v-33c0,-5.52 -4.48,-10 -10,-10c-5.52,0 -10,4.48 -10,10v23h-76.63v-120h76.63v18.09c0,5.52 4.48,10 10,10c5.52,0 10,-4.48 10,-10v-28.09c0,-5.52 -4.48,-10 -10,-10h-96.63c-5.52,0 -10,4.48 -10,10z" />
	<path id="Layer" class="shp0" d="M291.37,344v104c0,5.52 -4.48,10 -10,10h-79.32c-5.52,0 -10,-4.48 -10,-10v-104c0,-5.52 4.48,-10 10,-10h79.32c5.52,0 10,4.48 10,10zM271.37,354h-59.32v84h59.32z" />
</svg>