<svg height="512pt" viewBox="0 0 512 512.00077" width="512pt" xmlns="http://www.w3.org/2000/svg"><path d="m436.976562 75.023438c-100.023437-100.027344-261.917968-100.035157-361.953124 0-100.027344 100.027343-100.035157 261.917968 0 361.953124 100.027343 100.027344 261.917968 100.035157 361.953124 0 100.027344-100.027343 100.035157-261.917968 0-361.953124zm-180.976562 421.46875c-132.605469 0-240.492188-107.882813-240.492188-240.492188 0-132.605469 107.886719-240.492188 240.492188-240.492188 132.609375 0 240.492188 107.886719 240.492188 240.492188 0 132.609375-107.882813 240.492188-240.492188 240.492188zm0 0"/><path d="m256 205.019531c-28.109375 0-50.980469 22.871094-50.980469 50.980469 0 28.113281 22.871094 50.984375 50.980469 50.984375 28.113281 0 50.984375-22.871094 50.984375-50.984375 0-28.109375-22.871094-50.980469-50.984375-50.980469zm0 86.515625c-19.59375 0-35.53125-15.941406-35.53125-35.535156s15.9375-35.53125 35.53125-35.53125 35.535156 15.9375 35.535156 35.53125-15.941406 35.535156-35.535156 35.535156zm0 0"/><path d="m209.277344 185.644531c3.113281 8.269531 12.636718 12.613281 21.128906 9.054688 16.316406-6.839844 34.839844-6.855469 51.1875-.003907 8.472656 3.558594 18.007812-.761718 21.132812-9.050781l41.417969-109.953125c3.023438-8.011718-.785156-17.183594-9.082031-20.464844-35.679688-14.097656-73.773438-18.019531-110.023438-12.785156-4.222656.609375-7.152343 4.527344-6.542968 8.75s4.539062 7.15625 8.746094 6.542969c33.402343-4.824219 68.792968-1.316406 102.144531 11.863281.742187.292969 2.894531-6.226562-41.117188 110.601563-.109375.277343-.425781.371093-.703125.25-33.765625-14.152344-64.398437.050781-63.371094.050781-.082031 0-.355468-.019531-.460937-.300781-43.996094-116.789063-41.859375-110.308594-41.121094-110.601563 5.113281-2.019531 10.367188-3.847656 15.625-5.433594 4.082031-1.234374 6.394531-5.542968 5.164063-9.628906-1.234375-4.085937-5.546875-6.398437-9.628906-5.164062-5.664063 1.710937-11.328126 3.679687-16.839844 5.859375-8.296875 3.28125-12.09375 12.449219-9.078125 20.460937zm0 0"/><path d="m213.429688 306.953125c-11.792969-9.871094-19.855469-23.558594-22.695313-38.546875-1.4375-7.585938-8.035156-13.09375-15.683594-13.09375-2.539062 0 2.480469-.976562-69.96875 15.59375-4.160156.953125-6.757812 5.09375-5.808593 9.253906.953124 4.160156 5.097656 6.757813 9.25 5.808594 70.621093-16.152344 66.847656-15.644531 67.03125-14.6875 3.503906 18.488281 13.433593 35.363281 27.960937 47.519531.519531.441407-68.855469 96.097657-69.175781 96.097657-1.03125 0-58.015625-40.339844-74.320313-117.316407-.179687-.8125-.242187-.464843 18.386719-4.726562 4.15625-.949219 6.757812-5.089844 5.808594-9.25-.953125-4.160157-5.09375-6.75-9.253906-5.808594l-18.011719 4.117187c-7.292969 1.667969-12.390625 8.0625-12.390625 15.550782 0 4.648437 12.300781 77.382812 79.996094 129.546875 7.238281 5.570312 17.5 3.945312 22.707031-3.261719l68.804687-95.292969c4.90625-6.792969 3.722656-16.179687-2.636718-21.503906zm0 0"/><path d="m455.050781 281.914062-28.101562-6.425781c-4.15625-.953125-8.300781 1.652344-9.25 5.808594-.953125 4.160156 1.648437 8.300781 5.808593 9.253906 29.707032 6.792969 28.636719 6.214844 28.472657 7.035157-15.824219 74.710937-73.441407 118.917968-74.714844 117.117187-.34375-.476563-69.230469-95.523437-68.777344-95.902344 14.523438-12.15625 24.453125-29.03125 27.960938-47.519531.183593-.957031-2.8125-1.285156 56.9375 12.378906 4.15625.957032 8.300781-1.648437 9.25-5.808594.953125-4.15625-1.648438-8.300781-5.808594-9.25-61.445313-14.054687-57.367187-13.285156-59.878906-13.285156-7.648438 0-14.246094 5.507813-15.679688 13.089844-2.84375 14.988281-10.90625 28.679688-22.699219 38.550781-6.359374 5.320313-7.539062 14.707031-2.636718 21.5l68.804687 95.292969c5.222657 7.234375 15.496094 8.816406 22.707031 3.261719 40.773438-31.417969 69.0625-76.242188 79.648438-126.226563.230469-1.09375.347656-2.210937.347656-3.316406 0-7.492188-5.097656-13.886719-12.390625-15.554688zm0 0"/></svg>